<svg xmlns="http://www.w3.org/2000/svg" viewBox="0 0 236.5 49"><defs><style>.cls-1{fill:#0099d4;}.cls-2{fill:#fff;}.cls-3{fill:#a6a8ab;}</style></defs><g id="Layer_2" data-name="Layer 2"><g id="Layer_1-2" data-name="Layer 1"><rect x="142.5" width="94" height="49" rx="10.63"/><path class="cls-1" d="M49.05,5.75H59.59a12.5,12.5,0,0,1,8.93,3.18,10.93,10.93,0,0,1,3.37,8.37,11,11,0,0,1-3.41,8.58Q65.06,29,59,29H57.56V43.25H49.05Zm8.51,7.19v8.85a7.19,7.19,0,0,0,4.23-1.1,3.84,3.84,0,0,0,1.36-3.28A4,4,0,0,0,61.83,14,7.38,7.38,0,0,0,57.56,12.94Z"/><path class="cls-1" d="M74.76,5.75H92v8H83.27v6.91h7.56v7.78H83.27v6.82H92v8H74.76Z"/><path class="cls-1" d="M94.91,5.75h17.22v8h-8.71v6.91H111v7.78h-7.55v6.82h8.76v8H94.91Z"/><path class="cls-1" d="M115.06,5.75H123q8.26,0,12.56,4.71t4.3,13.75q0,6.84-2.12,11.06a13.15,13.15,0,0,1-5.93,6.1,18.78,18.78,0,0,1-8.41,1.88h-8.34Zm8.51,8V35.24c2.58-.22,4.41-1.13,5.47-2.73s1.6-4.24,1.6-7.91a23,23,0,0,0-.56-5.52,7.86,7.86,0,0,0-1.67-3.48,4.73,4.73,0,0,0-2.16-1.51A13.48,13.48,0,0,0,123.57,13.73Z"/><path class="cls-2" d="M172.23,22.29v6.3q0,7.31-3.53,11.47a12,12,0,0,1-9.65,4.17,12.29,12.29,0,0,1-10.58-5.15q-3.75-5.16-3.74-14.71t3.72-14.62q3.72-5,10.88-5,8,0,11.63,8.56l-8.11,3.35A11.57,11.57,0,0,0,161,14.05a3.31,3.31,0,0,0-2.38-.83,3.77,3.77,0,0,0-3.67,2.71q-1.08,2.71-1.08,8.78,0,5.64,1.22,8.3a4.07,4.07,0,0,0,3.89,2.66c2.85,0,4.32-2,4.41-6.1h-4V22.29Z"/><path class="cls-2" d="M189,44.23q-6.79,0-10.36-5.21T175.1,24q0-9.08,3.58-14.14a11.55,11.55,0,0,1,10-5.07q6.83,0,10.43,5.08t3.61,14.52q0,9.45-3.55,14.65A11.53,11.53,0,0,1,189,44.23Zm-.31-30.95q-4.6,0-4.6,10.81,0,7,1.16,9.3a3.68,3.68,0,0,0,3.39,2.33,4,4,0,0,0,3.66-2.33c.85-1.55,1.28-4.6,1.28-9.13Q193.61,13.28,188.72,13.28Z"/><path class="cls-2" d="M202.58,5.75h8.88l4.63,16.57a70.47,70.47,0,0,1,1.8,8.4H218a45,45,0,0,1,.93-5L224.1,5.75h9.1l-11.26,37.5H214Z"/><path class="cls-1" d="M27.1,41.65V33.36a14.83,14.83,0,0,0,6.79,2.24,3.63,3.63,0,0,0,2.53-.84,2.85,2.85,0,0,0,.93-2.23,3.11,3.11,0,0,0-.75-2A13.31,13.31,0,0,0,34,28.27a28.28,28.28,0,0,1-6.39-6,10.25,10.25,0,0,1-2-6.14,9.88,9.88,0,0,1,3.06-7.51,11,11,0,0,1,7.92-2.91,18.48,18.48,0,0,1,7.14,1.47v8a14.31,14.31,0,0,0-6.15-2,3.87,3.87,0,0,0-2.49.74,2.44,2.44,0,0,0-.91,2q0,2.23,4.24,5a25.23,25.23,0,0,1,5.13,4.65,10.26,10.26,0,0,1,2.59,6.94,9.78,9.78,0,0,1-3.39,7.63,12.49,12.49,0,0,1-8.63,3A17,17,0,0,1,27.1,41.65Z"/><rect class="cls-3" x="3.42" y="23.31" width="23.08" height="2.37"/><path class="cls-3" d="M26.25,23.56v1.88H3.67V23.56H26.25m.5-.5H3.17v2.88H26.75V23.06Z"/><rect class="cls-3" x="0.25" y="16.81" width="23.51" height="2.37"/><path class="cls-3" d="M23.51,17.06v1.87H.5V17.06h23m.5-.5H0v2.87H24V16.56Z"/><rect class="cls-3" x="7.67" y="29.82" width="23.08" height="2.37"/><path class="cls-3" d="M30.5,30.07v1.87H7.92V30.07H30.5m.5-.5H7.42v2.87H31V29.57Z"/></g></g></svg>