<svg xmlns="http://www.w3.org/2000/svg" viewBox="0 0 55 49"><defs><style>.cls-1{fill:#fff;}.cls-2{fill:#0099d4;}.cls-3{fill:#a6a8ab;}</style></defs><g id="Layer_2" data-name="Layer 2"><g id="Layer_1-2" data-name="Layer 1"><path class="cls-1" d="M10.63,0H44.38A10.62,10.62,0,0,1,55,10.62V38.38A10.63,10.63,0,0,1,44.38,49H10.63A10.63,10.63,0,0,1,0,38.38V10.63A10.63,10.63,0,0,1,10.63,0Z"/><path class="cls-2" d="M31.25,41.65V33.36a14.83,14.83,0,0,0,6.8,2.24,3.62,3.62,0,0,0,2.52-.84,2.85,2.85,0,0,0,.93-2.23,3.15,3.15,0,0,0-.74-2,14,14,0,0,0-2.57-2.27,28.28,28.28,0,0,1-6.39-6,10.25,10.25,0,0,1-2-6.14,9.88,9.88,0,0,1,3.06-7.51A11,11,0,0,1,40.8,5.75a18.47,18.47,0,0,1,7.13,1.47v8a14.31,14.31,0,0,0-6.15-2,3.87,3.87,0,0,0-2.49.74,2.46,2.46,0,0,0-.91,2c0,1.49,1.42,3.17,4.24,5a25,25,0,0,1,5.13,4.65,10.27,10.27,0,0,1,2.6,6.94A9.79,9.79,0,0,1,47,40.22a12.48,12.48,0,0,1-8.62,3A17,17,0,0,1,31.25,41.65Z"/><rect class="cls-3" x="7.57" y="23.31" width="23.08" height="2.37"/><path class="cls-3" d="M30.41,23.56v1.88H7.82V23.56H30.41m.5-.5H7.32v2.88H30.91V23.06Z"/><rect class="cls-3" x="4.4" y="16.81" width="23.51" height="2.37"/><path class="cls-3" d="M27.66,17.06v1.87h-23V17.06h23m.5-.5h-24v2.87h24V16.56Z"/><rect class="cls-3" x="11.82" y="29.82" width="23.08" height="2.37"/><path class="cls-3" d="M34.65,30.07v1.87H12.07V30.07H34.65m.5-.5H11.57v2.87H35.15V29.57Z"/></g></g></svg>